<?xml version="1.0" encoding="UTF-8"?><svg data-name="Layer 2" xmlns="http://www.w3.org/2000/svg" viewBox="0 0 304.24 329.88"><g data-name="Layer 1"><path d="m152.35,329.88c-5.03-4.98-10.01-9.75-14.82-14.7-8.88-9.13-17.67-18.36-26.48-27.56-22.17-23.2-43.46-47.15-62.1-73.34-13.54-19.03-25.59-38.93-35.05-60.34-5.57-12.61-9.8-25.64-12.03-39.26-3.4-20.74-2.46-41.15,5.22-60.95,4.59-11.83,10.9-22.63,19.59-31.94C36.36,11.41,48.34,5.12,62.14,2.14,71.16.2,80.3-.34,89.47.19c13.91.8,26.7,4.7,37.12,14.47,9.02,8.45,15.17,18.7,18.47,30.6,1.33,4.8,2.31,9.71,3.48,14.56.27,1.13.61,2.25,1,3.34.4,1.14,1.05,2.24,2.4,2.2,1.35-.05,2.29-.91,2.65-2.28.69-2.57,1.51-5.11,2.04-7.71,1.31-6.45,2.84-12.82,5.47-18.89,4.05-9.33,9.88-17.31,17.74-23.8,3.77-3.11,7.99-5.43,12.58-7.02C202.38,2.2,212.61.16,223.22.05c14.54-.14,27.96,3.69,40.47,10.91,18.66,10.77,30.28,26.92,35.82,47.55,2.92,10.89,4.39,21.99,4.69,33.29.65,24.86-5.5,48.08-16.37,70.25-9.64,19.66-21.54,37.89-34.5,55.47-13.46,18.26-28.23,35.43-43.73,51.97-14.68,15.68-29.52,31.22-44.28,46.82-3.55,3.75-7.08,7.52-10.62,11.27-.68.71-1.4,1.38-2.34,2.3Z" fill="#e7deff" stroke-width="0" data-name="txod0e.tif"/></g></svg>