<?xml version="1.0" encoding="utf-8"?>
<!-- Generator: Adobe Illustrator 25.4.1, SVG Export Plug-In . SVG Version: 6.00 Build 0)  -->
<svg version="1.1" id="Layer_1" xmlns="http://www.w3.org/2000/svg" xmlns:xlink="http://www.w3.org/1999/xlink" x="0px" y="0px"
	 viewBox="0 0 1000 1000" style="enable-background:new 0 0 1000 1000;" xml:space="preserve">
<style type="text/css">
	.st0{fill:#E7DDEE;}
	.st1{fill:url(#SVGID_1_);}
	.st2{fill:#FFFFFF;}
</style>
<g>
	<path class="st0" d="M969.18,489.04c0,7.07-1.47,13.19-4.4,18.19c-2.88,4.9-6.82,8.99-11.72,12.08c-4.75,2.98-10.36,5.2-16.57,6.57
		c-6.06,1.31-12.58,1.97-19.35,1.97c-2.32,0-5.15-0.15-8.44-0.51c-3.28-0.35-6.67-0.86-10.1-1.52c-3.44-0.66-6.77-1.47-9.8-2.42
		c-3.28-0.96-5.86-2.07-7.88-3.39l-1.16-0.76v-29.61l4.24,3.84c1.82,1.67,4.09,3.23,6.67,4.6c2.63,1.41,5.51,2.58,8.49,3.59
		c2.98,0.96,6.01,1.72,9.04,2.22c2.93,0.56,5.71,0.81,8.18,0.81c8.64,0,15.06-1.41,19.15-4.14c3.79-2.63,5.61-6.32,5.61-11.27
		c0-2.63-0.56-4.85-1.82-6.77c-1.31-2.02-3.23-3.89-5.66-5.61c-2.53-1.77-5.61-3.54-9.14-5.25c-3.64-1.72-7.53-3.54-11.67-5.46
		c-4.65-2.48-8.89-4.95-12.78-7.43c-4.04-2.53-7.58-5.41-10.56-8.49c-3.03-3.18-5.46-6.82-7.22-10.81
		c-1.72-4.04-2.63-8.84-2.63-14.15c0-6.67,1.52-12.53,4.55-17.48c2.98-4.85,6.97-8.94,11.82-12.08c4.8-3.13,10.31-5.46,16.37-6.97
		c5.96-1.47,12.18-2.22,18.44-2.22c14.3,0,24.55,1.62,31.27,4.95l1.36,0.66v28.14l-3.99-2.88c-6.97-5.05-16.22-7.63-27.38-7.63
		c-3.08,0-6.16,0.3-9.2,0.86c-2.98,0.56-5.61,1.52-7.93,2.78c-2.17,1.21-3.99,2.78-5.36,4.7c-1.31,1.77-1.92,3.89-1.92,6.52
		c0,2.48,0.51,4.65,1.52,6.37c1.06,1.87,2.63,3.59,4.7,5.1c2.22,1.72,5,3.39,8.24,4.95c3.39,1.67,7.28,3.49,11.72,5.46
		c4.75,2.43,9.2,5,13.34,7.73c4.24,2.73,7.98,5.76,11.22,9.09c3.28,3.33,5.91,7.17,7.83,11.32
		C968.22,478.88,969.18,483.73,969.18,489.04z"/>
</g>
<g>
	<g>
		<path class="st0" d="M661.35,561.94l-2.14,5.91h-16.48v-0.92h0.71c0.99,0,1.81-0.8,1.84-1.79v-18.46c0-0.87-0.82-1.6-1.81-1.6
			h-0.71l-0.02-0.92h6.97c1.46,0,3.3-0.35,3.84-0.57l0.4-0.16v4.9l-0.92-0.02v-0.87c0-0.87-0.71-1.62-1.58-1.67H648v9.61h5.96
			c0.73,0,1.32-0.61,1.32-1.32v-0.78l0.89-0.02v5.82h-0.89v-0.78c0-0.73-0.57-1.29-1.29-1.34H648v9.3h6.73
			c3.25,0,4.54-1.58,5.58-4.14l0.07-0.16H661.35z"/>
	</g>
	<g>
		<path class="st0" d="M691.56,566.94v0.92h-7.75v-0.89h0.8c0.26,0,0.52-0.14,0.73-0.35c0.19-0.21,0.28-0.47,0.26-0.73l-1.39-15.49
			l-6.47,14.39c0,0.02-0.89,1.98-1.11,3.3l-0.05,0.26h-0.75l-0.07-0.19l-7.98-17.28l-1.34,15c-0.02,0.26,0.07,0.54,0.28,0.75
			c0.19,0.21,0.45,0.35,0.71,0.35h0.82v0.89h-6.99v-0.92h0.82c0.94,0,1.95-0.57,2.12-1.81l2.5-21.4h0.78l0.07,0.16l8.92,19.31
			l8.83-19.47h0.75l2.59,21.4c0.14,1.25,1.18,1.81,2.1,1.81H691.56z"/>
	</g>
	<g>
		<path class="st0" d="M709.4,550.83c0,2.35-1.13,4.38-3.13,5.58c-2.1,1.27-4.73,1.34-6.87,0.21l-0.16-0.07v-0.87l0.35,0.09
			c0.21,0.02,5.18,1.04,6.57-3.37c0.14-0.42,0.21-1.18,0.19-1.88c-0.07-2.99-1.62-4.78-4.14-4.78h-3.51v19.4
			c0.02,0.99,0.85,1.79,1.81,1.79h0.71l0.02,0.92h-7.82l0.02-0.92h0.71c0.97,0,1.79-0.8,1.81-1.79v-18.43
			c-0.09-0.92-0.87-1.62-1.81-1.62h-0.71l-0.02-0.92h8.9C706.7,544.17,709.4,546.74,709.4,550.83z"/>
	</g>
	<g>
		<path class="st0" d="M724.92,543.72c-7.77,0-12.97,4.94-12.97,12.29c0,7.37,5.2,12.31,12.97,12.31c7.77,0,12.97-4.94,12.97-12.31
			C737.89,548.67,732.69,543.72,724.92,543.72z M724.92,566.75c-5.89,0-9.84-4.31-9.84-10.74c0-6.4,3.96-10.71,9.84-10.71
			c5.89,0,9.82,4.31,9.82,10.71C734.74,562.44,730.8,566.75,724.92,566.75z"/>
	</g>
	<g>
		<path class="st0" d="M771.06,544.17v0.92h-0.59c-0.94,0-2.17,0.59-2.61,1.86l-5.44,17.42c-0.02,0.02-0.66,2.07-0.73,3.6v0.28h-0.8
			l-0.07-0.21l-6.45-18.03l-4.73,14.36c0,0.02-0.61,2.02-0.68,3.6v0.28h-0.8l-0.07-0.21l-7.49-21.12c-0.47-1.27-1.67-1.84-2.61-1.84
			h-0.57v-0.92h7.91v0.92h-0.57c-0.35,0-0.68,0.16-0.89,0.42c-0.24,0.31-0.26,0.73-0.12,1.22l4.71,15.16l5.93-18.25l0.73,0.02
			l0.07,0.19l6.19,17.38l4.14-14.55c0.14-0.49,0.09-0.92-0.14-1.22c-0.19-0.24-0.47-0.38-0.85-0.38h-0.59v-0.92H771.06z"/>
	</g>
	<g>
		<path class="st0" d="M788.42,561.94l-2.14,5.91H772.1l0.02-0.92h0.68c0.99,0,1.81-0.8,1.84-1.79v-18.46c0-0.87-0.82-1.6-1.81-1.6
			h-0.71l-0.02-0.92h9.94c1.46,0,3.3-0.35,3.81-0.57l0.42-0.16v4.9l-0.92-0.02v-0.87c0-0.87-0.71-1.62-1.58-1.67h-6.4v9.61h5.27
			c0.71,0,1.29-0.61,1.29-1.32v-0.78l0.92-0.02v5.82h-0.92v-0.78c0-0.73-0.57-1.29-1.27-1.34h-5.3v9.3h4.43
			c3.25,0,4.54-1.58,5.58-4.14l0.07-0.16H788.42z"/>
	</g>
	<g>
		<path class="st0" d="M812.08,566.94v0.92h-2.1c-3.08,0-4.83-1.6-5.98-2.99c-0.21-0.26-1.34-1.88-2.78-3.96
			c-0.75-1.08-1.48-2.12-1.58-2.24c-0.89-1.11-1.77-2.12-2.8-2.12h-0.28v-0.89h0.31c0,0,0.73,0.02,1.72,0
			c1.67-0.05,4-0.42,4.87-3.23c0.14-0.42,0.21-1.18,0.19-1.86c-0.07-2.85-1.48-4.64-3.81-4.76c-1.15-0.07-2.45-0.05-3.3-0.02h-0.49
			v19.35c0.02,0.99,0.85,1.79,1.81,1.79h0.71l0.02,0.92h-7.79v-0.92h0.71c0.99,0,1.79-0.8,1.81-1.77v-18.29
			c0-0.99-0.82-1.79-1.81-1.79h-0.71v-0.92h9.18c4.17,0,6.73,2.5,6.73,6.5c0,2.92-1.98,6.03-5.04,6.52
			c0.64,0.52,1.29,1.27,1.74,1.93c0.05,0.02,2.85,4.05,4.1,5.42c1.39,1.51,2.52,2.38,4.29,2.4H812.08z"/>
	</g>
	<g>
		<path class="st0" d="M819.21,566.94h0.71v0.92h-7.82l0.02-0.92h0.71c0.99,0,1.79-0.8,1.81-1.79v-18.29
			c-0.02-0.99-0.82-1.77-1.81-1.77h-0.71l-0.02-0.92h7.82l-0.02,0.92h-0.68c-1.01,0-1.81,0.78-1.84,1.77v18.29
			C817.4,566.14,818.22,566.94,819.21,566.94z"/>
	</g>
	<g>
		<path class="st0" d="M848.12,544.17v0.92h-0.89c-0.97,0-1.72,0.75-1.74,1.7v17.02c0,2.1,0.28,4.14,0.28,4.17l0.05,0.35h-0.75
			l-0.09-0.09l-17.47-18.65v15.68c0.02,0.94,0.8,1.67,1.74,1.67h0.89l0.02,0.92h-7.39v-0.92h0.89c0.97,0,1.72-0.75,1.74-1.72V548.1
			c0-2.19-0.28-4.05-0.28-4.07l-0.07-0.35h0.8l0.09,0.09l17.45,18.65v-15.61c-0.02-0.94-0.8-1.72-1.74-1.72h-0.89l-0.02-0.92H848.12
			z"/>
	</g>
	<g>
		<path class="st0" d="M874.45,556.2v0.92h-0.8c-0.47,0-0.85,0.12-1.06,0.35c-0.19,0.19-0.28,0.47-0.28,0.85v5.56l-0.07,0.07
			c-0.99,1.32-3.91,4.38-9.77,4.38c-7.25-0.05-12.15-4.99-12.15-12.31c0-7.35,4.87-12.29,12.15-12.29c3.15,0,5.74,0.73,8.15,2.26
			l0.12,0.09l0.02,0.12l0.71,4.99h-0.85l-0.05-0.21c-0.97-3.67-3.84-5.67-8.1-5.67c-5.44,0-9.09,4.31-9.09,10.71
			c0,6.38,3.65,10.71,9.09,10.74c2.64,0,5.25-0.99,7.16-2.71v-5.7c0-1.01-0.78-1.22-1.41-1.22h-0.8v-0.92H874.45z"/>
	</g>
	<g>
		<path class="st0" d="M905.19,542.29v0.92h-0.28c-4.94,0-9.91,11.72-9.91,17.09v4.85c0.02,0.99,0.85,1.79,1.84,1.79h0.68l0.02,0.92
			h-7.82l0.02-0.92h0.71c0.99,0,1.79-0.8,1.81-1.77v-4.92c0-5.96-5.34-17.05-10.41-17.05h-0.31v-0.89l0.28-0.02h0.47
			c7.39,0,10.03,7.37,11.63,11.82c0.02,0.07,0.05,0.14,0.07,0.21c1.88-5.09,4.5-12.03,10.9-12.03H905.19z"/>
	</g>
	<g>
		<path class="st0" d="M916.24,543.72c-7.77,0-12.97,4.94-12.97,12.29c0,7.37,5.2,12.31,12.97,12.31c7.75,0,12.97-4.94,12.97-12.31
			C929.21,548.67,923.98,543.72,916.24,543.72z M916.24,566.75c-5.89,0-9.84-4.31-9.84-10.74c0-6.4,3.96-10.71,9.84-10.71
			c5.86,0,9.82,4.31,9.82,10.71C926.05,562.44,922.1,566.75,916.24,566.75z"/>
	</g>
	<g>
		<path class="st0" d="M954.24,544.17v0.92h-0.85c-0.78,0-1.39,0.54-1.44,1.29v13.02c0,5.32-3.7,8.92-9.18,8.92
			c-5.65,0-9.44-3.58-9.44-8.88v-13.02c-0.02-0.75-0.64-1.34-1.46-1.34h-0.82v-0.92h7.28v0.92h-0.82c-0.8,0-1.41,0.57-1.44,1.32
			v12.57c0,4.61,2.68,7.7,6.71,7.7c4.21,0,7.04-2.92,7.04-7.28v-13.02c-0.02-0.73-0.66-1.29-1.44-1.29h-0.85v-0.92H954.24z"/>
	</g>
</g>
<g>
	<polygon class="st0" points="348.24,388.75 348.24,412.39 310.35,412.39 310.35,525.67 283.42,525.67 283.42,412.39 245.63,412.39 
		245.63,388.75 	"/>
</g>
<g>
	<polygon class="st0" points="441.51,502.12 441.51,525.67 362.49,525.67 362.49,388.75 438.58,388.75 438.58,412.39 389.42,412.39 
		389.42,444.68 434.74,444.68 434.74,468.17 389.42,468.17 389.42,502.12 	"/>
</g>
<g>
	<polygon class="st0" points="867.43,502.12 867.43,525.67 788.36,525.67 788.36,388.75 864.5,388.75 864.5,412.39 815.29,412.39 
		815.29,444.68 860.6,444.68 860.6,468.17 815.29,468.17 815.29,502.12 	"/>
	<rect x="733.39" y="388.75" class="st0" width="27.59" height="136.92"/>
</g>
<g>
	<path class="st0" d="M698.17,389.3v135.81h-21.83v-54.77c-0.1-0.15-0.25-0.3-0.35-0.51c-2.83-3.44-10.26-12.58-28.9-12.58h-3.99
		c-17.53,0-25.06,8.49-28.29,12.13c-0.2,0.25-0.35,0.45-0.56,0.66l0.35,55.07h-21.78l-0.3-29.96c-4.19,4.75-7.63,8.24-10.05,10.66
		c-10.76,10.26-26.68,22.03-54.67,22.03c-41.58,0-72.96-30.42-72.96-70.83c0-40.17,31.38-70.43,72.96-70.43
		c21.73,0,40.32,7.68,52.34,21.62l7.02,8.44l-21.07,21.32l-0.45-5.46c-0.56-6.67-3.74-12.02-10.31-17.38
		c-2.58-2.07-6.32-3.74-11.06-4.85c-4.65-1.11-10.31-1.72-16.47-1.72c-29.51,0-50.93,20.36-50.93,48.45
		c0,28.29,21.42,48.86,50.93,48.86c23.04,0.61,50.52-18.49,64.62-44.51V389.3h21.83v53c8.74-4.4,18.44-6.67,28.85-6.67h3.99
		c10.41,0,20.06,2.22,29.25,6.72V389.3H698.17z"/>
</g>
<radialGradient id="SVGID_1_" cx="123.6803" cy="463.9102" r="90.2845" gradientUnits="userSpaceOnUse">
	<stop  offset="0" style="stop-color:#2C2E7F"/>
	<stop  offset="0.1247" style="stop-color:#2B2D79"/>
	<stop  offset="0.3369" style="stop-color:#292B6A"/>
	<stop  offset="0.6109" style="stop-color:#232551"/>
	<stop  offset="0.9329" style="stop-color:#171831"/>
	<stop  offset="1" style="stop-color:#121429"/>
</radialGradient>
<path class="st1" d="M173.81,554.19H73.55c-22.18,0-40.16-17.98-40.16-40.16V413.78c0-22.18,17.98-40.16,40.16-40.16h100.25
	c22.18,0,40.16,17.98,40.16,40.16v100.25C213.96,536.22,195.99,554.19,173.81,554.19z"/>
<g>
	<path class="st2" d="M98.94,511.3h-24.4c0.67-15.72,1.01-28.39,1.01-38.02c0-9.81-0.21-20.29-0.64-31.44l-14.62,6.4l-4.75-8.77
		l32.08-24.68h11.33c-0.67,25.1-1.01,44.6-1.01,58.49C97.94,482.6,98.27,495.27,98.94,511.3z"/>
	<path class="st2" d="M191.83,462.95c0,17.43-3.66,30.45-10.97,39.07c-7.31,8.62-17.91,12.93-31.8,12.93
		c-13.47,0-23.63-3.79-30.48-11.38c-6.85-7.59-10.28-19.63-10.28-36.14c0-17,3.7-30.34,11.1-40.03c7.4-9.69,18.05-14.53,31.94-14.53
		c13.34,0,23.43,4.31,30.25,12.93C188.42,434.42,191.83,446.81,191.83,462.95z M169.26,468.71c0-11.15-1.55-20.32-4.66-27.51
		c-3.11-7.19-8.23-10.78-15.35-10.78c-12.06,0-18.1,10.3-18.1,30.89c0,12.25,1.57,21.31,4.71,27.19c3.14,5.88,8.21,8.82,15.22,8.82
		C163.19,497.31,169.26,487.78,169.26,468.71z"/>
</g>
</svg>
