<svg data-name="Layer 2" xmlns="http://www.w3.org/2000/svg" viewBox="0 0 186.48 40"><g data-name="Layer 1"><path d="m184.2,14.5l-12.22-12.22c-3.04-3.04-7.96-3.04-11,0l-4.28,4.28-4.28-4.28c-3.03-3.03-7.97-3.03-11,0l-4.28,4.28-4.28-4.28c-3.03-3.03-7.97-3.03-11,0l-4.28,4.28-6.3-6.3c-.34-.34-.88-.34-1.22,0l-2.44,2.44c-.34.34-.34.88,0,1.22l6.3,6.3-4.28,4.28c-3.03,3.03-3.03,7.97,0,11l4.28,4.28-6.29,6.29c-.34.34-.34.88,0,1.22l2.44,2.44c.34.34.88.34,1.22,0l14.24-14.24c.34-.34.34-.88,0-1.22l-3.06-3.06-4.89,4.89-4.28-4.28c-1.01-1.01-1.01-2.66,0-3.67l12.22-12.22c1.01-1.01,2.66-1.01,3.67,0l4.28,4.28-6.11,6.11-4.89-4.89-3.06,3.06c-.34.34-.34.88,0,1.22l14.06,14.06-4.28,4.28c-1.01,1.01-2.65,1.01-3.67,0l-3.06-3.06-3.06,3.06c-.34.34-.34.88,0,1.22l2.44,2.44c3.04,3.04,7.96,3.04,11,0l12.22-12.22c.34-.34.34-.88,0-1.22l-3.06-3.06-4.89,4.89-6.11-6.11,14.06-14.06c1.01-1.01,2.66-1.01,3.67,0l4.28,4.28-6.11,6.11-4.89-4.89-3.06,3.06c-.34.34-.34.88,0,1.22l14.06,14.06-4.28,4.28c-1.01,1.01-2.65,1.01-3.67,0l-3.06-3.06-3.06,3.06c-.34.34-.34.88,0,1.22l2.44,2.44c3.04,3.04,7.96,3.04,11,0l12.22-12.22c3.04-3.04,3.04-7.96,0-11l-3.06-3.06-3.06,3.06c-.34.34-.34.88,0,1.22l2.44,2.44c1.01,1.01,1.01,2.65,0,3.67l-4.28,4.28-6.11-6.11,14.06-14.06c1.01-1.01,2.65-1.01,3.67,0l12.22,12.22c1.01,1.01,1.01,2.65,0,3.67l-12.22,12.22c-1.01,1.01-2.65,1.01-3.67,0l-3.06-3.06-3.06,3.06c-.34.34-.34.88,0,1.22l2.44,2.44c3.04,3.04,7.96,3.04,11,0l12.22-12.22c3.04-3.04,3.04-7.96,0-11Z" fill="#aa8cff" stroke-width="0"/><rect y="3.63" width="4.71" height="32.04" rx=".68" ry=".68" fill="#030326" stroke-width="0"/><path d="m19.52,12.83c-3.26,0-6.01,1.12-8.17,3.35-2.13,2.22-3.2,5.05-3.2,8.43s1.08,6.21,3.21,8.43c2.16,2.22,4.91,3.34,8.17,3.34s6-1.13,8.13-3.34c2.16-2.19,3.25-5.02,3.25-8.43s-1.09-6.21-3.25-8.43c-2.13-2.22-4.87-3.35-8.13-3.35Zm4.74,17.14c-1.29,1.37-2.84,2.04-4.74,2.04s-3.46-.67-4.74-2.04c-1.28-1.36-1.92-3.16-1.92-5.37s.65-3.97,1.92-5.33c1.32-1.4,2.87-2.08,4.74-2.08s3.43.68,4.74,2.08c1.28,1.36,1.92,3.15,1.92,5.33s-.65,4.01-1.92,5.37Z" fill="#030326" stroke-width="0"/><path d="m44.92,12.83c-3.26,0-6.01,1.12-8.17,3.35-2.13,2.22-3.2,5.05-3.2,8.43s1.08,6.21,3.21,8.43c2.16,2.22,4.91,3.34,8.17,3.34s6-1.13,8.13-3.34c2.16-2.19,3.25-5.02,3.25-8.43s-1.09-6.21-3.25-8.43c-2.13-2.22-4.87-3.35-8.13-3.35Zm4.74,17.14c-1.29,1.37-2.84,2.04-4.74,2.04s-3.46-.67-4.74-2.04c-1.28-1.36-1.92-3.16-1.92-5.37s.65-3.97,1.92-5.33c1.32-1.4,2.87-2.08,4.74-2.08s3.43.68,4.74,2.08c1.28,1.36,1.92,3.15,1.92,5.33s-.65,4.01-1.92,5.37Z" fill="#030326" stroke-width="0"/><path d="m90.9,15.22c-1.41-1.59-3.42-2.39-5.99-2.39-3.07,0-5.54,1.27-7.35,3.78-.58-1.09-1.42-1.97-2.5-2.63-1.25-.76-2.71-1.14-4.34-1.14-1.31,0-2.64.37-3.95,1.09-1.03.57-1.87,1.26-2.49,2.07l-.17-.11.17-.54v-1.13c0-.38-.31-.68-.68-.68h-3.17c-.38,0-.68.31-.68.68v20.77c0,.38.31.68.68.68h3.34c.38,0,.68-.31.68-.68v-11.53c0-1.69.51-3.18,1.5-4.43.99-1.24,2.18-1.84,3.63-1.84,1.61,0,2.76.41,3.41,1.21.68.82,1.02,2.22,1.02,4.14v12.44c0,.38.31.68.68.68h3.34c.38,0,.68-.31.68-.68v-11.53c0-1.69.51-3.18,1.5-4.43.99-1.24,2.18-1.84,3.63-1.84,1.61,0,2.76.41,3.41,1.21.68.82,1.02,2.22,1.02,4.14v12.44c0,.38.31.68.68.68h3.34c.38,0,.68-.31.68-.68v-13.06c0-2.87-.71-5.13-2.1-6.71Z" fill="#030326" stroke-width="0"/></g></svg>